<?xml version="1.0" encoding="utf-8"?>
<!-- Generator: Adobe Illustrator 23.0.4, SVG Export Plug-In . SVG Version: 6.00 Build 0)  -->
<svg version="1.1" id="Laag_1" xmlns="http://www.w3.org/2000/svg" xmlns:xlink="http://www.w3.org/1999/xlink" x="0px" y="0px"
	 viewBox="0 0 370.14 191.88" style="enable-background:new 0 0 370.14 191.88;" xml:space="preserve">
<style type="text/css">
	.st0{fill:#BD7F1C;}
	.st1{fill:#00AFAA;}
	.st2{fill:#FFFFFF;}
</style>
<rect x="21.23" y="29.79" transform="matrix(0.9995 -0.0323 0.0323 0.9995 -1.9115 5.1509)" class="st0" width="274.51" height="63.91"/>
<rect x="181.94" y="15.89" transform="matrix(0.0193 -0.9998 0.9998 0.0193 77.4744 343.6084)" class="st1" width="63.91" height="232.85"/>
<polygon class="st2" points="45.55,55.72 56.59,55.25 57.5,83.71 64.12,73.44 63.53,54.99 81.07,54.36 91.33,47.45 45.34,49.19 "/>
<polygon class="st2" points="103.39,75.43 92.34,75.9 91.43,47.44 84.82,57.71 85.41,76.16 67.87,76.79 57.61,83.7 103.6,81.96 "/>
<polygon class="st1" points="81.27,72.34 68.14,72.82 67.69,58.8 80.82,58.33 "/>
<g>
	<path class="st2" d="M130.78,51.56l-7.64,0.25l0.94,29.19l-7.05,0.23l-0.94-29.19l-7.64,0.25l-0.19-5.78l22.33-0.72L130.78,51.56z"
		/>
	<path class="st2" d="M139.31,45.5l4.71,25.73l0.1,0l3.28-25.99l6.76-0.22l4.95,25.73l0.1,0l3.03-25.98l6.76-0.22l-5.24,35.17
		l-7.88,0.25l-4.74-25.24l-0.1,0l-3.1,25.49l-7.88,0.25l-7.5-34.76L139.31,45.5z"/>
	<path class="st2" d="M173.1,44.4l7.05-0.23l1.13,34.97l-7.05,0.23L173.1,44.4z"/>
	<path class="st2" d="M192.86,68.87c0.03,0.82,0.12,1.56,0.27,2.22c0.15,0.67,0.42,1.22,0.79,1.67c0.37,0.45,0.87,0.79,1.48,1.03
		c0.61,0.24,1.38,0.35,2.29,0.32c1.08-0.03,2.04-0.42,2.88-1.15c0.84-0.73,1.24-1.83,1.19-3.3c-0.03-0.78-0.15-1.46-0.38-2.02
		c-0.23-0.56-0.6-1.07-1.1-1.51c-0.51-0.44-1.16-0.84-1.98-1.19c-0.81-0.35-1.81-0.7-3-1.06c-1.58-0.47-2.96-1-4.12-1.58
		c-1.16-0.58-2.14-1.28-2.93-2.09c-0.79-0.81-1.39-1.75-1.78-2.83c-0.4-1.08-0.62-2.34-0.66-3.78c-0.11-3.46,0.77-6.07,2.64-7.83
		c1.87-1.76,4.49-2.69,7.85-2.8c1.57-0.05,3.02,0.07,4.35,0.37c1.33,0.3,2.49,0.82,3.48,1.55c0.99,0.74,1.77,1.69,2.35,2.87
		c0.58,1.18,0.89,2.59,0.95,4.26l0.03,0.98l-6.76,0.22c-0.05-1.67-0.39-2.94-1-3.82c-0.62-0.88-1.61-1.3-2.98-1.25
		c-0.78,0.03-1.43,0.16-1.95,0.41s-0.92,0.56-1.22,0.95c-0.3,0.39-0.5,0.83-0.59,1.32c-0.1,0.49-0.14,1-0.12,1.52
		c0.04,1.08,0.29,1.98,0.77,2.7c0.48,0.72,1.48,1.37,3,1.94l5.51,2.17c1.36,0.54,2.47,1.12,3.34,1.73c0.87,0.61,1.57,1.27,2.1,1.99
		c0.53,0.72,0.91,1.52,1.13,2.39c0.22,0.88,0.36,1.85,0.39,2.93c0.12,3.69-0.86,6.41-2.95,8.16c-2.08,1.75-5.04,2.69-8.86,2.81
		c-3.98,0.13-6.86-0.64-8.63-2.32c-1.77-1.67-2.71-4.13-2.81-7.36l-0.05-1.42l7.05-0.23L192.86,68.87z"/>
	<path class="st2" d="M220.22,56.9l0.1,0l8.46-14.29l7.64-0.25l-9.02,15.29l11.22,19.64l-7.93,0.26l-7.66-14.12l-2.47,4.05
		l0.34,10.38l-7.05,0.23l-1.13-34.97l7.05-0.23L220.22,56.9z"/>
	<path class="st2" d="M259.73,47.39l-12.49,0.4l0.27,8.23l11.75-0.38l0.19,5.78l-11.75,0.38l0.3,9.4l12.98-0.42l0.19,5.78
		l-20.03,0.65L240,42.24l19.54-0.63L259.73,47.39z"/>
</g>
<g>
	<path class="st2" d="M148.65,120.2l-7.64-0.19l-0.71,29.2l-7.05-0.17l0.71-29.2l-7.64-0.19l0.14-5.78l22.34,0.55L148.65,120.2z"/>
	<path class="st2" d="M159.81,114.69l-0.33,13.37l8.23,0.2l0.33-13.37l7.05,0.17l-0.86,34.98l-7.05-0.17l0.38-15.53l-8.23-0.2
		l-0.38,15.53l-7.05-0.17l0.86-34.98L159.81,114.69z"/>
	<path class="st2" d="M200.33,121.47l-12.49-0.31l-0.2,8.23l11.76,0.29l-0.14,5.78l-11.76-0.29l-0.23,9.41l12.98,0.32l-0.14,5.78
		l-20.04-0.49l0.86-34.98l19.55,0.48L200.33,121.47z"/>
	<path class="st2" d="M220.99,116.19l8.4,35.2l-7.35-0.18l-1.44-7.44l-9.31-0.23l-1.8,7.36l-7.35-0.18l10.11-34.75L220.99,116.19z
		 M219.53,137.97l-3-15.81l-0.1,0l-3.76,15.64L219.53,137.97z"/>
	<path class="st2" d="M251.37,122.72l-7.64-0.19l-0.71,29.2l-7.05-0.17l0.71-29.2l-7.64-0.19l0.14-5.78l22.34,0.55L251.37,122.72z"
		/>
	<path class="st2" d="M274.88,123.29l-12.49-0.31l-0.2,8.23l11.76,0.29l-0.14,5.78L262.05,137l-0.23,9.41l12.98,0.32l-0.14,5.78
		l-20.04-0.49l0.86-34.98l19.54,0.48L274.88,123.29z"/>
	<path class="st2" d="M293.05,117.95c2.94,0.07,5.21,0.87,6.8,2.4c1.6,1.53,2.36,3.81,2.28,6.84c-0.06,2.35-0.58,4.26-1.56,5.72
		c-0.98,1.46-2.48,2.38-4.48,2.76l0,0.1c1.76,0.3,3.03,0.91,3.83,1.81c0.79,0.9,1.27,2.33,1.41,4.3c0.05,0.65,0.08,1.37,0.1,2.13
		c0.01,0.77,0.03,1.63,0.03,2.57c0.02,1.86,0.08,3.29,0.19,4.27c0.17,0.98,0.58,1.66,1.23,2.04l-0.01,0.29l-7.64-0.19
		c-0.35-0.5-0.56-1.07-0.65-1.71c-0.08-0.64-0.13-1.3-0.15-1.99l-0.03-6.72c-0.03-1.37-0.35-2.46-0.95-3.26
		c-0.6-0.8-1.64-1.22-3.11-1.25l-3.77-0.09l-0.36,14.79l-7.05-0.17l0.86-34.98L293.05,117.95z M289.64,133.16
		c1.7,0.04,3.01-0.33,3.95-1.1c0.93-0.78,1.42-2.11,1.47-4.01c0.08-3.23-1.51-4.89-4.78-4.97l-3.33-0.08l-0.25,10.09L289.64,133.16z
		"/>
</g>
</svg>
